<svg xmlns="http://www.w3.org/2000/svg" id="uuid-e8d3a3b9-ce87-4036-b17e-5d5c6a0294a7" data-name="Layer 2" width="366.84" height="95.9" viewBox="0 0 366.84 95.9"><g id="uuid-07501320-a626-4273-b8f0-bb35ed394ed1" data-name="Layer 1"><path d="m166.9,95.9v-59.34h38.93v11.17h-24.67v13.18h22.83v10.4h-22.83v13.42h26.61v11.17h-40.87Z" style="fill: #75787c;"></path><path d="m296.96,53.48c.44-7.44-6.75-14.62-14.24-16.47v58.9h14.26v-42.44h-.02Z" style="fill: #75787c;"></path><path d="m238.2,36.57h-21.23v43.01c.18,7.76,2.76,16.19,16.05,16.33h5.68c21.4,0,34.16-9.31,34.16-29.88s-14.1-29.46-34.66-29.46Zm1.43,48.17h-8.48v-37.01h6.8c14.26,0,20.64,6.38,20.64,19.13,0,11.66-5.29,17.87-18.96,17.87Z" style="fill: #75787c;"></path><path d="m141.26,73.84v22.07h1.53c6.37-.53,11.74-3.49,12.74-9.76v-49.58h-16.54l-18.96,46.58-13.67-38.51c-4.73,2.16-10.58,3.29-17.54,3.4h-2.7v47.87h14.27v-22.07l-.92-14.1,12.16,36.17h15.95l14.09-35.16-.41,13.09Z" style="fill: #75787c;"></path><path d="m50.76,52.25c-1.58,3.08-3.63,5.51-6.15,7.28-2.52,1.77-5.34,3-8.47,3.67-3.13.67-6.27,1.01-9.42,1.01s-6.42-.3-9.58-.91c-3.16-.6-6.02-1.72-8.57-3.37-2.55-1.63-4.62-3.88-6.2-6.73-1.58-2.84-2.37-6.51-2.37-10.99V0h15.57v41.81c0,3.62.84,6.11,2.52,7.49,1.68,1.37,4.51,2.06,8.48,2.06s6.62-.77,8.37-2.31c1.74-1.54,2.62-4.49,2.62-8.84V0h15.57v40.4c0,4.82-.79,8.78-2.37,11.85Z" style="fill: #95c93d;"></path><path d="m106.66,11.95c-1.17-2.54-2.76-4.69-4.77-6.43-2.01-1.74-4.39-3.09-7.13-4.06-2.75-.97-5.72-1.45-8.94-1.45h-22.5v45.08c.13,3.94.82,7.3,2.26,9.88,1.58,2.84,3.65,5.09,6.2,6.73,1.85,1.19,4.71,2.29,7.1,2.98v-23.19h2.82c8.46-.13,15.03-2,19.7-5.62,4.67-3.61,7-8.77,7-15.46,0-3.08-.59-5.89-1.76-8.44Zm-14.77,11.97c-.37,1.03-.96,1.95-1.77,2.78-.81.83-1.87,1.49-3.19,1.99-1.32.5-2.92.74-4.81.74h-3.24V12.55h5.16c3.17,0,5.36.78,6.58,2.33,1.22,1.55,1.82,3.52,1.82,5.91,0,1.05-.19,2.09-.56,3.12Z" style="fill: #95c93d;"></path><path d="m296.98,95.9h-14.26v-59.25" style="fill: none;"></path><path d="m346.87,36.57h-18.38l-22.83,59.34h14.27l6.46-17.46h20.05l2,6.19c2.05,5.97,7.48,11.16,17.88,11.27h.51l-19.97-59.34Zm-16.71,31.56l3.7-11.58,3.27-11.17,2.77,11.17,3.19,11.58h-12.92Z" style="fill: #75787c;"></path><path d="m296.98,84.67c-.46,7.63-6.87,10.89-14.26,11.11v.12h14.26v-11.23Z" style="fill: #95c93d;"></path><path d="m207.78,85.86c-.88,6.46-6.31,9.5-12.78,10.05h12.78v-10.05Z" style="fill: #95c93d;"></path></g></svg>