<svg width="1865" height="1297" viewBox="0 0 1865 1297" fill="none" xmlns="http://www.w3.org/2000/svg">
<path d="M914.6 10.3286L909.533 20.4619L903.8 16.9952L898.067 13.6619L901.4 28.9952C903.133 37.3952 904.2 44.7286 903.667 45.2619C903.133 45.7952 899.8 42.8619 896.2 38.8619C890.867 32.9952 889.267 31.9286 888.333 33.5286C887.667 34.5952 887 36.1952 887 37.1286C887 39.5286 884.2 39.9286 876.733 38.1952C872.867 37.2619 869.667 36.9952 869.667 37.5286C869.667 38.0619 870.6 41.3952 871.667 44.9952C874.467 54.0619 874.2 55.7952 870.067 57.1286C866.467 58.3286 866.733 58.5952 880.067 69.5286C887.533 75.6619 893.667 81.5286 893.667 82.4619C893.667 83.2619 893 85.6619 892.067 87.5286C891.267 89.3952 890.867 91.1286 891.267 91.5286C891.667 91.9286 898.067 90.8619 905.4 89.2619L919 86.4619L934.067 89.1286C942.2 90.5952 949.133 91.6619 949.4 91.5286C949.667 91.2619 948.867 88.9952 947.8 86.3286L945.8 81.5286L959.133 70.7286C966.333 64.7286 972.333 59.3952 972.333 58.8619C972.333 58.3286 970.867 57.2619 969.133 56.4619C965.933 54.9952 965.933 54.8619 967.533 48.5952C968.467 45.1286 969.667 40.8619 970.2 39.2619C971 36.5952 970.867 36.4619 965.4 37.6619C962.2 38.4619 958.6 39.2619 957.267 39.6619C955.533 40.1952 954.467 39.1286 952.867 35.5286L950.867 30.5952L945.933 36.1952C943.267 39.3952 940.467 42.7286 939.933 43.7952C938.333 46.3286 936.333 45.9286 936.333 42.9952C936.333 41.5286 937.533 34.8619 939.133 28.1952C940.733 21.5286 941.667 15.6619 941.267 15.2619C940.867 14.8619 938.333 15.9286 935.667 17.5286C933 19.1286 930.6 20.3286 930.467 20.0619C930.2 19.7952 927.8 15.1286 925.133 9.79523C922.467 4.59523 920.2 0.195229 919.933 0.195229C919.8 0.195229 917.4 4.72856 914.6 10.3286ZM924.733 23.6619C926.067 25.3952 928.333 26.8619 929.8 26.8619C931.8 26.8619 932.2 27.5286 931.667 29.7952C928.6 43.2619 928.333 45.7952 929.667 48.1952C933 54.4619 939.4 54.1952 945.533 47.6619C948.067 44.8619 949.133 44.5952 951.4 45.6619C952.733 46.4619 955.267 46.8619 957 46.5952C959.667 46.0619 959.933 46.4619 959.8 53.5286L959.667 60.9952L950.067 68.7286C944.467 73.1286 939.933 77.7952 939.533 79.6619C939.133 81.3952 938.467 82.8619 938.333 82.8619C938.067 82.8619 933.8 82.0619 928.733 80.9952C920.867 79.2619 918.6 79.2619 911.667 80.9952C901 83.3952 901.133 83.3952 899.667 78.8619C898.867 76.4619 894.867 72.1952 889.267 67.7952L880.067 60.5952L879.933 53.1286C879.667 46.0619 879.8 45.6619 882.6 46.3286C884.067 46.7286 886.467 46.4619 887.933 45.7952C889.8 44.7286 891.4 45.2619 895 48.3286C900.2 52.7286 905.667 53.2619 909 49.9286C911.267 47.6619 911.267 42.5952 909 31.3952C908.2 27.6619 908.467 27.1286 911.533 26.3286C913.8 25.7952 915.933 23.7952 917.4 20.7286C919.267 16.5952 919.8 16.1952 921 18.1952C921.667 19.3952 923.4 21.9286 924.733 23.6619Z" fill="black"/>
<path d="M872.333 181.529C872.333 185.929 872.733 186.862 875 186.862C877.533 186.862 877.667 187.795 877.667 200.862C877.667 213.929 877.533 214.862 875 214.862C872.867 214.862 872.333 215.795 872.333 219.529V224.195H894.333H916.333V214.729V205.395L912.067 205.795C908.467 206.062 907.533 206.995 906.467 210.462C905.267 214.729 905.133 214.862 897.4 214.862H889.533L889.933 209.795C890.333 205.129 890.6 204.862 895.4 204.462C900.333 204.062 900.467 203.929 900.067 199.129C899.667 194.462 899.4 194.195 894.6 193.795C889.933 193.395 889.533 192.995 889.933 189.795C890.333 186.462 890.867 186.195 897.4 185.795C904.2 185.395 904.6 185.529 906.067 189.395C907.267 192.862 908.333 193.529 911.933 193.529H916.333V184.862V176.195H894.333H872.333V181.529Z" fill="black"/>
<path d="M942.333 177.262C941.933 177.662 941.667 179.795 941.667 181.929C941.667 184.595 942.467 185.929 944.333 186.462C946.733 187.129 947 188.329 947 200.995C947 213.929 946.867 214.862 944.333 214.862C942.2 214.862 941.667 215.795 941.667 219.395V223.929L950.467 224.862C976.333 227.662 990.2 221.662 992.333 206.595C994.2 193.129 988.067 181.529 977.667 178.995C972.467 177.662 943.4 176.329 942.333 177.262ZM972.333 188.862C977.267 191.395 979 194.595 979 201.395C979 208.862 973.667 214.595 966.333 215.129L961 215.529L960.6 201.129L960.2 186.862H964.333C966.6 186.862 970.2 187.795 972.333 188.862Z" fill="black"/>
<path d="M816.733 178.462C805.667 178.995 805.667 178.995 805.667 182.595C805.667 184.595 806.067 188.462 806.467 191.129C807.267 195.529 807.8 196.195 811.133 196.195C814.067 196.195 815 195.529 815.667 192.195C816.733 187.529 819.667 186.862 820.867 191.129C821.267 192.862 821.667 199.395 821.667 205.795C821.667 215.395 821.267 217.529 819.667 217.529C818.2 217.529 817.667 218.995 817.667 222.329V227.262L825.8 226.329C830.333 225.929 835.533 225.529 837.133 225.529C839.933 225.529 840.333 224.862 840.333 220.862C840.333 217.129 839.8 216.195 837.8 216.195C835.667 216.195 835.267 214.729 834.467 202.862C833.933 195.529 833.8 188.995 834.333 188.195C835.8 185.929 837.267 186.729 839 190.862C840.333 194.062 841.533 194.862 844.467 194.862C848.333 194.862 848.333 194.862 848.333 186.195V177.529L838.067 177.795C832.333 177.929 822.733 178.329 816.733 178.462Z" fill="black"/>
<path d="M758.333 182.329C747.4 183.262 738.2 184.062 738.067 184.062C737.8 184.195 737.667 186.329 737.667 188.862C737.667 192.595 738.2 193.529 740.2 193.529C742.867 193.529 742.867 193.529 745 213.795C745.8 221.129 745.667 221.529 742.867 221.529C740.333 221.529 740.067 222.062 740.867 225.662C741.267 227.929 741.667 230.329 741.667 230.862C741.667 231.795 753.267 231.262 761.4 230.062C765.4 229.395 765.8 228.995 765.4 225.129C765.133 221.529 764.333 220.729 761.4 220.462C758.2 220.062 757.667 219.395 757.667 215.529C757.667 211.395 758.067 210.862 762.467 210.062C767 209.262 767.267 208.862 766.467 205.129C766.067 202.995 765.667 200.595 765.667 199.929C765.667 199.262 763.667 198.862 761.4 199.129C757.533 199.529 757 199.129 756.6 195.795C756.2 192.995 756.733 192.195 758.6 192.195C759.933 192.195 763.133 191.795 765.667 191.395C769.933 190.729 770.467 190.995 771.933 194.729C773.4 198.729 776.2 199.795 780.6 198.195C782.867 197.262 782.2 180.062 779.933 180.329C779 180.462 769.4 181.262 758.333 182.329Z" fill="black"/>
<path d="M1058.33 183.929C1057.93 184.995 1057.67 187.262 1057.67 188.995C1057.67 191.395 1058.33 192.195 1060.33 192.195C1063 192.195 1063.13 192.729 1062.33 200.462C1060.6 219.129 1060.33 220.195 1057.53 220.195C1055.53 220.195 1055 221.129 1055 224.862C1055 229.929 1055.53 230.195 1070.6 231.262L1077.4 231.795L1077.93 227.129C1078.33 223.395 1077.93 222.329 1076.07 221.795C1073.67 221.262 1073.67 220.195 1074.47 208.329C1075 201.262 1075.67 195.129 1075.93 194.462C1076.2 193.929 1077.67 193.529 1079.13 193.529C1081.13 193.529 1081.67 192.595 1081.67 188.862C1081.67 186.329 1081.53 184.195 1081.4 184.062C1081.13 184.062 1076.07 183.529 1070.07 183.129C1061.4 182.329 1058.87 182.595 1058.33 183.929Z" fill="black"/>
<path d="M1105.67 191.129C1105.67 194.862 1106.2 196.195 1107.8 196.195C1109.67 196.195 1109.8 197.529 1109.13 206.462C1107.8 221.929 1107.13 224.195 1104.2 224.195C1102.2 224.195 1101.67 225.129 1101.67 228.729C1101.67 234.062 1102.07 234.195 1115.4 235.529L1124.33 236.462V231.662C1124.33 228.329 1123.8 226.862 1122.33 226.862C1120.73 226.862 1120.33 225.129 1120.33 218.995C1120.33 214.595 1120.87 210.729 1121.4 210.329C1121.93 209.929 1125.53 215.929 1129.4 223.529C1135.8 236.595 1136.47 237.395 1141 238.329C1143.67 238.729 1146.07 238.862 1146.33 238.595C1146.6 238.329 1147.93 229.795 1149.13 219.795C1151.13 204.195 1151.8 201.529 1153.8 201.529C1156.73 201.529 1158.87 193.795 1156.33 192.195C1155.53 191.662 1150.47 190.862 1145.27 190.329C1135.27 189.395 1133.67 190.062 1133.67 195.662C1133.67 197.395 1134.73 198.862 1136.33 199.262C1138.87 199.929 1139 200.595 1138.2 207.129C1137.67 210.995 1137.13 214.329 1137 214.462C1136.87 214.729 1133.93 208.862 1130.47 201.529C1123.53 187.129 1124.33 187.795 1110.73 186.462C1105.67 186.062 1105.67 186.062 1105.67 191.129Z" fill="black"/>
<path d="M691.667 188.329C671.4 190.729 671 190.862 671 193.529C671 197.395 672.467 200.195 674.467 200.195C676.733 200.195 676.733 199.929 674.333 212.862C671.4 228.862 671.133 229.529 668.867 229.529C667.133 229.529 666.867 230.462 667.533 233.662C667.933 235.929 668.333 238.329 668.333 238.729C668.333 239.662 688.333 237.662 689.4 236.729C690.733 235.662 687.933 228.195 686.2 228.195C682.867 228.195 684.067 222.862 687.8 221.529C693.8 219.262 698.733 219.929 699.8 223.129C700.333 224.862 700.067 226.329 699.133 226.595C698.333 226.862 697.667 229.129 697.667 231.662V236.195L705.4 235.395C718.733 234.062 719 234.062 719 228.862C719 225.262 718.467 224.195 716.6 224.195C714.733 224.195 712.6 220.862 708.467 211.262C703.533 199.795 703.133 198.062 704.867 196.729C707.133 195.129 707.533 192.462 706.2 188.995C705.267 186.729 705.267 186.729 691.667 188.329ZM692.333 204.195C695.933 211.262 695.667 212.195 690.867 212.195C686.733 212.195 686.733 212.062 687.533 207.129C687.933 204.462 688.333 201.395 688.333 200.462C688.333 197.662 689.533 198.729 692.333 204.195Z" fill="black"/>
<path d="M615.666 198.329C593.666 201.529 594.733 201.129 595.266 205.929C595.533 208.995 596.466 210.329 598.466 210.595C600.866 210.995 601.4 212.595 602.866 223.262C603.8 229.929 604.866 236.195 605.266 237.129C605.666 238.195 604.866 238.862 603 238.862C600.6 238.862 600.2 239.395 600.866 241.795C601.266 243.529 601.666 245.795 601.666 246.995C601.666 248.862 602.733 248.995 609.4 247.929C622.866 245.929 623 245.929 623 241.395C623 238.462 622.2 237.129 620.466 236.595C618.866 236.195 617.666 234.462 617.266 231.795C616.466 226.329 617 225.529 621.666 225.529C626.333 225.529 627.666 227.662 629 237.129C630.066 244.862 629.933 244.862 640.866 243.395C645.533 242.729 647 241.929 647 240.062C647 236.462 645.533 233.529 643.666 233.529C641.666 233.529 640.333 230.595 640.333 226.195C640.333 224.462 639 222.062 637.533 220.995L634.6 218.995L637.533 215.395C639 213.395 640.333 210.729 640.333 209.262C640.333 207.129 636.866 198.862 635.933 198.862C635.8 198.862 633.8 198.329 631.666 197.795C629.266 197.129 622.866 197.395 615.666 198.329ZM626.6 211.795C627.4 214.195 623 217.529 618.866 217.529C615.933 217.529 615 216.862 615 214.995C615 213.529 614.6 211.529 614.2 210.462C613.666 208.995 614.466 208.195 617.266 207.929C621.133 207.395 625.8 209.395 626.6 211.795Z" fill="black"/>
<path d="M1229.93 206.995C1211.8 216.195 1212.73 242.462 1231.67 250.995C1238.33 254.062 1249.8 254.195 1255.8 251.395C1260.2 249.262 1267 242.462 1267 240.329C1267 239.662 1263.93 238.862 1260.2 238.329C1254.73 237.529 1252.87 237.795 1250.73 239.662C1247.67 242.595 1240.07 242.595 1235.67 239.662C1229.4 235.529 1229.13 223.529 1235.13 218.462C1236.87 217.129 1240.2 216.195 1243.93 216.195C1249.8 216.195 1251.27 217.129 1257.4 224.729C1258.33 225.929 1260.47 226.862 1262.33 226.862C1264.07 226.862 1266.33 227.129 1267.4 227.529C1268.87 228.195 1269.67 226.195 1270.73 219.262C1271.53 214.329 1272.07 210.062 1271.67 209.795C1271.4 209.529 1268.73 208.995 1265.8 208.595C1262.07 208.062 1260.33 208.329 1260.33 209.395C1260.33 210.195 1258.6 209.662 1256.33 207.929C1250.33 203.529 1237.53 203.129 1229.93 206.995Z" fill="black"/>
<path d="M564.333 206.462C562.467 206.729 560.467 207.795 559.667 208.595C558.867 209.529 554.467 210.195 548.867 210.195C541 210.195 538.6 210.729 534.6 213.529C522.2 222.062 519.933 238.995 529.8 250.062C537.533 258.995 553 261.262 563.267 255.262C568.467 252.195 574.6 244.595 575.8 239.662L576.733 235.795L570.467 236.595C565.667 237.262 563.133 238.595 559.8 242.195C556.2 245.929 554.333 246.862 550.467 246.862C539.533 246.862 533.533 233.129 540.733 224.862C545 219.929 552.6 218.995 557.933 222.862C561.267 225.262 562.867 225.662 567.8 224.862C571 224.462 573.667 223.662 573.667 223.262C573.667 218.462 570.333 205.529 569.133 205.662C568.333 205.795 566.2 206.195 564.333 206.462Z" fill="black"/>
<path d="M1301.13 218.062C1299.8 222.729 1300.2 225.262 1302.33 225.795C1303.8 226.062 1302.47 229.262 1297.13 238.862C1293.27 245.795 1289.27 251.529 1288.2 251.529C1286.07 251.529 1284.6 254.195 1284.47 258.329C1284.33 260.862 1285.53 261.395 1294.33 262.862C1299.93 263.795 1304.6 264.329 1304.87 264.062C1305.13 263.795 1305.8 261.662 1306.2 259.262C1307 256.062 1306.73 254.995 1305 254.595C1303.13 254.195 1303.13 253.795 1304.73 251.795C1306.2 249.662 1307.53 249.395 1312.73 250.195C1318.2 250.995 1319 251.529 1319 254.329C1319 256.195 1318.2 257.529 1317.13 257.529C1315 257.529 1313 265.662 1315 266.862C1317 268.062 1333.67 271.262 1334.33 270.595C1334.73 270.329 1335.4 268.062 1335.8 265.795C1336.47 262.462 1336.2 261.529 1334.73 261.529C1333.27 261.529 1332.47 259.262 1331.8 253.129C1331.4 248.595 1330.6 241.795 1330.2 237.929C1329.4 231.395 1329.53 231.129 1332.2 231.795C1335 232.462 1335.13 232.195 1335.53 224.595C1335.67 222.862 1332.33 221.662 1318.73 218.862L1301.8 215.262L1301.13 218.062ZM1318.2 235.929L1319.13 242.995L1315.4 242.062C1313.4 241.529 1311.4 240.862 1311 240.595C1310.73 240.329 1311.8 237.395 1313.53 234.062C1315.27 230.862 1316.87 228.329 1317 228.462C1317.13 228.729 1317.67 232.062 1318.2 235.929Z" fill="black"/>
<path d="M1366.33 233.795C1365.53 236.995 1365.93 238.462 1367.53 239.662C1369.67 241.129 1369.67 241.795 1367.67 249.662C1362.73 268.995 1363 268.329 1360.47 267.529C1358.47 266.995 1357.8 267.662 1357.13 271.129C1356.73 273.395 1356.73 275.795 1357.27 276.195C1358.33 277.129 1375 281.529 1377.4 281.529C1378.07 281.529 1379 279.662 1379.53 277.395C1380.07 274.195 1379.8 272.729 1378.07 271.529C1375.93 269.929 1375.93 269.262 1377.8 261.395L1379.8 252.862L1385.13 268.729C1389.27 281.395 1391 284.729 1393.4 285.662C1400.47 288.329 1400.87 287.929 1405.67 268.862C1409.8 252.862 1410.6 250.862 1413.13 250.862C1415.27 250.862 1416.2 249.795 1416.87 246.595C1417.27 244.329 1417.53 242.329 1417.4 242.195C1417.13 242.062 1412.07 240.729 1406.07 239.262L1395.27 236.595L1394.47 239.395C1393.13 244.195 1393.53 246.862 1395.67 246.862C1398.07 246.862 1398.07 249.529 1395.8 256.862L1394.2 262.195L1389.53 248.195C1384.87 234.329 1384.73 234.195 1379.53 232.729C1367 229.129 1367.27 229.129 1366.33 233.795Z" fill="black"/>
<path d="M429 235.395C414.467 238.729 405.667 241.662 405.667 243.262C405.8 248.062 407.533 250.995 409.8 250.462C412.467 249.795 412.2 249.129 417 268.062C419 276.062 419 276.729 417 277.929C415.4 278.729 415 280.062 415.8 283.262C416.2 285.662 416.733 287.662 417 287.929C417.667 288.729 447.667 280.062 451.4 277.929C461.8 271.795 465 257.529 458.6 245.529C453.4 235.662 443.267 232.195 429 235.395ZM439.533 245.529C444.067 247.129 448.333 254.329 448.333 259.929C448.333 263.129 447.133 265.529 444.467 268.195C440.867 271.929 434.333 274.595 432.867 273.129C431.4 271.662 425.8 247.529 426.733 246.729C427.667 245.795 431.533 244.595 434.6 244.329C435.4 244.329 437.667 244.729 439.533 245.529Z" fill="black"/>
<path d="M369.4 251.129C364.333 252.729 360.333 254.329 360.333 254.995C360.333 258.462 363.267 262.862 365.533 262.862C367.4 262.862 368.6 264.595 370.2 269.129C371.4 272.462 372.067 275.529 371.933 275.795C371.667 275.929 367.533 272.729 362.867 268.595C358.2 264.462 353.267 260.195 352.067 259.129C350.067 257.395 348.6 257.529 341.133 259.529C332.733 261.795 332.467 262.062 333.267 265.395C334.333 270.329 334.867 270.862 337.667 270.862C339.667 270.862 340.867 273.262 343.667 282.462C345.533 288.995 347.4 294.862 347.667 295.795C347.933 296.729 347.133 297.795 345.667 298.195C343.533 298.862 343.4 299.529 344.6 303.262C345.4 305.662 346.2 307.662 346.333 307.795C346.867 308.595 367.133 301.929 367.267 301.129C367.267 300.595 367 298.329 366.6 296.329C365.933 293.262 365.267 292.595 363.267 293.129C361.133 293.662 360.2 292.329 357.8 285.395C356.333 280.862 355.133 276.995 355.4 276.729C355.533 276.595 361 281.262 367.533 286.995C379.4 297.662 381.4 298.595 387.533 296.329L390.733 294.995L388.333 286.595C380.467 259.795 380.333 258.729 382.867 257.795C384.733 256.995 385 256.062 384.067 252.462C382.733 247.529 381.933 247.395 369.4 251.129Z" fill="black"/>
<path d="M1445.93 255.129C1445.13 258.462 1445.27 259.662 1446.6 259.929C1449.4 260.595 1448.73 262.195 1440.73 274.195C1436.07 281.262 1432.33 285.529 1430.87 285.529C1429.4 285.529 1428.2 286.995 1427.67 289.662C1427.13 291.929 1427 293.929 1427.4 294.329C1428.47 295.395 1446.2 300.062 1447.13 299.395C1449 298.329 1449.4 291.662 1447.53 290.195C1446.07 289.129 1446.07 288.462 1447.53 286.595C1449.13 284.462 1449.93 284.462 1455.13 285.929C1459.53 287.262 1461.13 288.329 1461.4 290.595C1461.67 292.595 1461.13 293.529 1459.8 293.529C1458.6 293.529 1457.67 293.662 1457.67 293.929C1457.67 294.062 1457.13 296.062 1456.47 298.462L1455.27 302.729L1464.33 305.395C1469.27 306.995 1474.07 308.195 1474.73 308.195C1475.53 308.195 1476.73 306.329 1477.53 304.062C1479.4 298.729 1479.4 298.862 1477 298.862C1475.4 298.862 1475 296.595 1474.73 286.862C1474.6 280.195 1474.47 273.529 1474.47 271.795C1474.33 269.795 1475 268.995 1476.47 269.262C1477.93 269.395 1479.27 268.062 1480.2 265.395C1481 262.995 1481.4 260.862 1481.13 260.462C1480.47 259.795 1449.67 250.862 1448.07 250.862C1447.53 250.862 1446.6 252.862 1445.93 255.129ZM1463 273.929C1463 278.729 1462.87 278.862 1459.4 278.062C1453.53 276.729 1453.53 276.329 1457.27 270.729C1461.27 264.729 1463 265.662 1463 273.929Z" fill="black"/>
<path d="M1510.07 274.062C1508.87 277.929 1509 278.729 1511 279.795C1513.13 280.729 1513 281.795 1509.27 293.795C1505.67 305.262 1504.87 306.862 1502.2 306.862C1499.93 306.862 1499 307.795 1498.33 310.995C1497.8 313.262 1497.67 315.262 1497.93 315.395C1499.13 316.595 1524.47 324.195 1529.13 324.995C1538.6 326.462 1548.2 320.995 1552.47 311.529C1557.27 301.129 1554.73 288.329 1546.87 282.729C1544.07 280.862 1514.07 269.529 1511.67 269.529C1511.53 269.529 1510.87 271.529 1510.07 274.062ZM1535.13 288.595C1541.27 292.729 1542.73 297.395 1540.33 304.595C1537.8 311.929 1531.53 315.262 1523.93 313.529C1521.13 312.995 1518.6 312.195 1518.2 311.929C1517.93 311.662 1519.67 305.529 1521.93 298.462C1526.73 284.195 1527.53 283.529 1535.13 288.595Z" fill="black"/>
<path d="M284.067 277.262C276.2 279.929 269.533 282.595 269.133 282.995C268.6 283.395 269 285.662 269.8 288.062C271 291.395 271.8 292.062 273.8 291.529C276.2 290.729 276.333 291.529 276.333 305.395C276.333 317.129 275.933 320.329 274.333 321.262C272.6 322.062 272.6 323.129 273.8 326.595C274.6 328.995 275.667 330.862 276.2 330.862C277.133 330.862 288.067 327.262 294.6 324.862C295.8 324.462 295.8 323.129 294.733 319.529C293.533 315.795 292.733 314.995 290.733 315.662C288.867 316.195 288.333 315.662 288.333 313.129C288.333 310.329 289.4 309.395 294.6 307.662C299.933 305.795 301.133 305.795 302.733 307.395C304.2 308.729 304.2 309.795 303 311.662C301.133 314.729 303.4 322.195 306.067 321.129C306.867 320.862 311.133 319.395 315.533 318.062C319.8 316.729 323.533 314.995 323.933 314.195C324.867 311.529 321.933 305.529 319.933 306.329C318.733 306.729 315.133 302.995 309.8 295.529C301.4 283.795 300.6 282.062 303.133 281.262C305.667 280.462 303.267 272.195 300.6 272.329C299.4 272.329 291.933 274.595 284.067 277.262ZM292.867 292.329C294.867 295.262 296.467 297.929 296.2 298.195C295.933 298.462 294.067 298.995 292.2 299.529C288.733 300.329 288.6 300.195 288.2 293.662C287.933 289.929 287.933 286.862 288.333 286.862C288.733 286.862 290.733 289.395 292.867 292.329Z" fill="black"/>
<path d="M227.667 297.129C216.067 301.262 215.533 301.795 217.533 306.595C218.733 309.529 219.933 310.329 221.8 309.929C223.667 309.395 224.6 310.195 225.667 312.862C226.467 314.862 226.867 316.729 226.733 316.862C225.667 317.529 214.733 321.529 213.8 321.529C213.133 321.529 212.2 319.929 211.8 318.062C211.133 315.662 211.533 314.062 213 312.995C215 311.662 215 310.862 213.4 307.262L211.667 302.995L201 307.129C195.133 309.395 190.2 311.395 189.933 311.529C189.8 311.662 190.333 313.662 191.133 316.062C192.2 319.129 193.4 320.195 195.267 319.929C197.533 319.529 198.733 321.529 203 332.462C207 342.729 207.667 345.529 206.2 346.062C203.933 346.995 203.8 350.995 206.067 353.929C207.533 356.062 208.333 355.929 217 352.729C222.2 350.729 226.733 348.729 227.4 348.195C227.933 347.795 227.667 345.529 227 343.262C225.8 340.195 224.867 339.262 223 339.795C221.133 340.329 220.067 339.529 219 336.862C217 331.795 217.267 330.995 221 329.529C229.533 326.329 230.6 326.462 232.2 330.995C233.4 334.595 233.267 335.529 231.4 336.862C229.533 338.329 229.4 338.995 230.867 342.595L232.6 346.729L242.733 342.995C248.333 340.862 253.133 338.595 253.267 337.929C253.533 337.129 253.133 334.995 252.467 333.129C251.533 330.729 250.467 329.929 248.733 330.329C246.733 330.862 245.533 328.862 241.533 317.929C237.133 305.929 236.867 304.729 239 303.795C241 302.729 241.133 301.929 239.933 298.062C239.133 295.529 238.2 293.529 237.8 293.662C237.4 293.662 232.867 295.262 227.667 297.129Z" fill="black"/>
<path d="M1588.6 300.462C1587.27 304.195 1587.27 305.129 1589 306.329C1590.6 307.529 1589.67 309.529 1582.2 318.995C1576.47 326.195 1572.6 330.062 1571.13 329.929C1569.53 329.662 1568.33 330.995 1567.4 334.195L1565.93 338.729L1575.27 342.062C1580.33 343.929 1585 345.529 1585.67 345.529C1587.67 345.529 1589.93 337.129 1588.2 336.062C1587.27 335.529 1587 334.062 1587.53 332.862C1588.07 331.262 1589.27 330.862 1591.67 331.395C1599.53 333.395 1601.67 334.729 1601.67 338.062C1601.67 340.462 1601.13 341.262 1599.67 340.729C1597.67 339.929 1594.47 345.795 1595.27 348.462C1595.53 349.262 1600.07 351.395 1605.27 353.529L1614.87 357.262L1616.47 352.595C1617.67 348.862 1617.67 347.662 1616.33 346.862C1615.13 346.062 1614.73 342.329 1614.87 334.062C1615.27 319.795 1615.93 316.195 1618.33 316.995C1620.2 317.795 1623 313.795 1623 310.462C1623 309.262 1617.8 306.595 1608.73 303.129C1600.73 300.195 1593.4 297.395 1592.33 296.995C1590.87 296.329 1589.8 297.395 1588.6 300.462ZM1603.67 320.995C1603 324.995 1602.47 325.529 1599.93 324.729C1595 323.262 1594.87 322.329 1599.4 316.862C1604.07 311.129 1605.4 312.329 1603.67 320.995Z" fill="black"/>
<path d="M165.933 348.862C159.133 351.929 159 352.062 160.6 355.795C163.133 361.795 163.667 361.929 171.133 358.729C180.467 354.862 180.6 354.729 178.867 349.795C177.133 344.729 175.4 344.595 165.933 348.862Z" fill="black"/>
<path d="M1641.93 348.862C1639.53 354.062 1639.93 354.729 1646.07 357.395C1657.13 362.195 1657.27 362.062 1659 356.862C1659.93 354.195 1660.33 351.795 1660.07 351.529C1659.4 350.862 1645.67 345.529 1644.47 345.529C1643.93 345.529 1642.73 346.995 1641.93 348.862Z" fill="black"/>
<path d="M303.667 400.329C256.467 409.662 219.8 445.262 210.467 491.129C207.4 505.795 207.667 526.729 211.133 543.262C216.867 570.995 210.867 581.662 175.8 605.929C110.467 651.262 63.7999 703.529 33.6666 764.862C13.2666 806.195 2.59992 849.262 0.733257 896.862C-2.20008 978.329 28.1999 1041 84.9999 1070.46C110.867 1083.8 135.933 1089.53 172.333 1090.46C201.933 1091.26 213.933 1089.53 239.667 1081C277.267 1068.46 326.867 1041.93 346.467 1023.93C349.933 1020.73 353 1018.73 353.267 1019.53C355 1024.33 366.067 1042.73 371.267 1049.4C390.2 1073.53 426.067 1082.6 464.467 1072.86C475.933 1069.93 500.333 1057.8 511 1049.66C515.8 1046.06 525.8 1036.86 533.267 1029.13C540.867 1021.53 549.267 1014.06 551.933 1012.73C556.067 1010.73 560.6 1010.33 577 1010.2C603.8 1009.93 621.267 1005.26 641.667 992.862C645.933 990.329 649.8 988.195 650.333 988.195C650.867 988.195 650.867 996.462 650.333 1006.46C648.867 1035.66 653.133 1050.6 666.6 1062.86C676.6 1071.93 685.533 1075.13 703.267 1075.93C733 1077.13 755.933 1067.13 785.133 1040.06C796.2 1029.8 798.467 1028.6 801.933 1031.66C803.267 1033 806.6 1038.46 809 1043.93C811.533 1049.26 815.267 1055.93 817.533 1058.6C822.6 1065 833.667 1071.53 843.667 1074.2C853.8 1076.73 875.933 1076.86 886.333 1074.2C899.4 1070.86 917.133 1061.13 936.333 1046.86C946.2 1039.53 954.333 1033.53 954.333 1033.53C954.467 1033.53 953.133 1037.8 951.267 1043.13C947.533 1054.2 948.067 1059.53 953.133 1064.33C956.467 1067.4 957.267 1067.53 976.067 1067.53C993.933 1067.53 996.2 1067.26 1002.07 1064.33C1006.6 1062.06 1009.93 1059.13 1013.13 1054.33C1017.53 1047.66 1053.27 961.395 1083.27 884.862C1091.27 864.329 1100.33 842.862 1103.27 837.262C1112.6 819.262 1131.13 801.662 1152.73 790.195C1172.73 779.662 1188.6 777.129 1196.07 783.529C1201.13 787.795 1202.2 792.062 1200.2 801.395C1199.4 805.529 1187.27 837.662 1173.4 872.862C1134.47 971.262 1131.67 980.862 1131.67 1015.53C1131.67 1042.33 1133.67 1048.46 1146.2 1061C1158.47 1073.26 1165.13 1075.4 1189.67 1075.53C1206.6 1075.53 1210.2 1075.13 1218.33 1072.33C1241.67 1064.46 1261.93 1050.46 1285.93 1025.66L1301.67 1009.53V1015.26C1301.8 1034.2 1307.93 1051.93 1317.67 1061.26C1328.33 1071.8 1341.93 1076.2 1363.67 1076.2C1382.6 1076.2 1396.73 1072.86 1414.47 1064.2C1432.07 1055.66 1446.6 1044.73 1467.13 1024.6L1483.93 1008.06L1484.87 1021C1486.6 1044.2 1493.4 1058.2 1507.4 1067.53C1516.33 1073.4 1527.27 1076.2 1541.4 1076.2C1560.87 1076.2 1575.4 1070.73 1595.93 1056.06C1601.93 1051.8 1607.53 1048.2 1608.33 1048.2C1610.87 1048.2 1608.73 1057.13 1604.07 1065.93C1601.67 1070.2 1596.33 1077 1591.8 1081.26C1584.6 1087.93 1580.47 1090.2 1558.33 1100.06C1509.4 1121.66 1491.67 1131.93 1476.6 1147.13C1457 1167 1449 1187.66 1452.47 1209.66C1458.2 1247.26 1497 1267 1542.33 1255.4C1580.2 1245.66 1615 1206.73 1640.33 1145.53C1658.87 1101 1662.2 1097 1696.73 1079.26C1721.93 1066.33 1749.93 1048.33 1769.53 1032.6C1796.87 1010.46 1827.4 976.995 1848.2 946.062C1859.93 928.862 1863.13 920.329 1863.93 904.729C1864.6 892.729 1864.6 892.595 1861 889.795C1856.6 886.329 1848.87 885.929 1844.6 888.995C1842.87 890.195 1834.6 901.529 1826.2 914.195C1804.73 946.729 1791.4 963.395 1770.07 984.329C1741 1012.86 1702.2 1040.2 1690.87 1040.2C1687.27 1040.2 1687 1039.8 1687 1035.4C1687 1032.2 1698.87 1001.4 1722.47 942.995C1784.33 790.062 1797.53 756.995 1799.27 750.595C1801.4 742.462 1799.8 737.795 1793.67 734.329C1789.67 731.929 1786.87 731.529 1772.2 731.529C1756.33 731.662 1755 731.795 1747.53 735.529C1741.8 738.462 1738.6 741.262 1735.4 745.795C1733.13 749.262 1719.13 782.595 1704.33 819.795C1676.6 889.662 1662.6 920.462 1648.2 943.529C1635.4 964.062 1618.33 986.062 1603.13 1001.93C1587.67 1017.93 1576.33 1024.86 1563.4 1026.46C1557 1027.13 1556.2 1027 1552.47 1023.13C1548.87 1019.66 1548.33 1018.06 1548.33 1011.8C1548.33 994.462 1549.53 991.262 1621 812.195C1634.07 779.662 1645 750.462 1645.4 747.395C1646.73 734.995 1640.6 731.529 1617.53 731.662C1601.93 731.662 1600.2 731.929 1593.13 735.395C1587.27 738.329 1584.47 740.729 1580.87 746.195C1578.07 750.329 1565.93 778.729 1552.2 813.129C1526.6 877.262 1511 910.595 1497.27 931.129C1473.93 965.929 1437.53 1006.46 1417.4 1019.8C1393.67 1035.53 1372.87 1037.66 1367.53 1024.73C1365.8 1020.73 1365.67 1017.66 1366.87 1006.33C1367.67 998.995 1368.87 990.995 1369.4 988.862C1374.2 972.862 1465.53 745.262 1469.13 740.595C1473.8 734.462 1481.13 732.329 1502.6 731.129C1521 730.062 1521.8 729.929 1526.47 726.062C1529.13 723.929 1532.47 720.062 1533.8 717.529C1537 711.662 1537.13 701.262 1534.2 698.729C1532.87 697.662 1526.2 696.729 1515.27 696.195C1497.67 695.395 1493.13 694.062 1491.67 689.529C1490.33 685.262 1491.93 680.195 1503.8 650.062C1515.67 620.195 1516.73 614.862 1512.33 609.129C1508.73 604.595 1502.2 602.862 1488.87 602.862C1467.67 602.862 1457 606.995 1449.53 618.195C1447.53 621.129 1440.87 636.462 1434.47 652.195C1428.07 667.929 1421.53 682.995 1419.8 685.662C1414.47 693.529 1409.13 695.262 1386.33 696.195C1371.8 696.862 1365.13 697.662 1362.2 699.262C1351.67 704.729 1345 720.462 1350.2 727.662C1351.93 729.929 1354.33 730.329 1370.87 730.995C1388.2 731.662 1389.93 731.929 1393 734.862C1395.27 736.995 1396.33 739.395 1396.33 742.462C1396.33 745.262 1387.27 769.662 1372.87 805.262C1343.4 878.195 1336.87 893.529 1327.53 910.195C1319.67 924.195 1297.4 956.195 1280.6 977.529C1267.53 994.062 1244.33 1017.26 1233.93 1023.93C1223.13 1031 1210.47 1034.46 1203.8 1032.2C1196.6 1029.8 1195 1026.6 1195 1014.2C1195 993.262 1196.07 990.062 1237.4 885.529C1262.2 822.862 1266.73 809.395 1270.47 788.062C1273.27 772.062 1272.2 760.995 1267.13 750.195C1257.8 730.595 1240.73 721.529 1216.33 723.395C1194.33 724.862 1175.8 732.062 1151.67 748.329C1131.67 761.795 1127.13 762.062 1107.13 750.195C1100.33 746.062 1092.07 742.062 1088.73 741.129C1083.53 739.795 1082.2 739.929 1077.93 742.195C1075.27 743.662 1071.8 746.862 1070.2 749.129C1068.6 751.529 1061.8 767.395 1055 784.462C1023.8 862.595 1001.27 911.929 987.533 932.195C944.067 996.462 918.333 1022.06 888.067 1031.66C879 1034.46 875.133 1033.26 871 1026.6C867 1020.06 867.667 1010.46 873.533 986.595C878.067 968.329 883.933 952.595 921 860.195C944.333 802.195 963.8 752.595 964.333 750.062C965.933 743.129 963.667 736.595 958.6 733.929C953.133 730.862 926.867 730.595 917.4 733.395C909.4 735.662 901.933 742.062 897.4 750.329C894.333 756.195 878.467 795.529 851.533 864.062C829.933 919.395 800.867 967.795 770.2 1000.2C757.267 1013.66 748.733 1019.8 736.733 1024.2C723.133 1029.13 714.867 1026.2 713 1015.66C712.467 1013.13 713.533 1005.13 715.667 995.395C718.6 982.062 726.467 961.129 764.333 866.195C789.133 803.795 809.8 750.862 810.333 748.462C811.667 741.662 809 736.729 801.8 733.262C796.733 730.729 793.533 730.195 783 730.195C772.067 730.195 769.267 730.729 762.733 733.795C754.067 737.795 746.333 745.262 741.4 754.462C739.4 757.929 726.733 788.595 713.133 822.595C699.533 856.595 685 890.862 680.867 898.862C671.667 916.729 659.667 931.795 644.467 944.995C625.267 961.795 599 972.595 588.467 968.329C580.467 964.995 581 961.529 594.467 924.595C613 873.662 618.2 850.329 618.2 817.529C618.2 802.195 617.533 792.595 615.933 785.795C609.267 756.062 588.6 733.795 560.2 726.062C548.733 722.862 519.8 722.862 505 726.062C472.333 733.129 444.2 752.595 420.2 784.862C406.333 803.529 395.4 822.195 372.467 866.595C349 911.929 340.6 926.729 328.2 944.862C300.067 985.929 270.2 1008.46 230.2 1019C219.667 1021.8 215.533 1022.2 192.333 1022.2C167.8 1022.06 165.667 1021.93 154.333 1018.33C137 1013 127.667 1007.66 116.2 996.195C108.067 988.062 104.867 983.795 99.9333 973.529C89.1333 951.529 83.3999 926.062 82.0666 894.195C79.1333 825.262 107 759.529 164.333 699.662C184.867 678.329 217.133 651.662 237 639.529C244.067 635.262 245.8 634.729 251.933 635.262C257.8 635.662 261 637.129 273.267 645.262C305.267 666.329 335.667 676.862 374.867 680.195C401.933 682.595 430.2 679.129 457.267 670.195C499.4 656.195 529.933 630.862 540.333 601.262C544.6 588.995 545.4 568.862 541.933 558.062C532.467 527.929 501.933 509.395 458.067 506.995C401.8 504.062 345.933 514.995 292.6 539.529C274.733 547.662 268.467 548.062 262.333 541.262C253.133 531.262 252.733 510.195 261.267 490.862C268.2 475.129 283 460.729 298.067 454.995C301.933 453.662 312.067 451.529 320.467 450.329C339.267 447.662 348.733 443.529 353.4 435.529C359.8 424.462 354.6 410.729 341.4 403.529C335.667 400.329 332.733 399.795 322.467 399.395C315.8 399.129 307.4 399.529 303.667 400.329ZM449 554.995C480.2 559.262 491.667 569.529 484.2 586.729C472.867 613.129 420.067 632.195 372.067 627.129C352.733 625.129 342.2 622.462 328.733 616.062C317.933 610.995 301.667 597.795 301.667 594.195C301.667 593.395 309 588.995 318.067 584.462C366.733 560.195 412.6 549.929 449 554.995ZM542.6 771.662C563.8 781.795 562.867 825.129 539.933 890.195C535 904.195 531.667 908.195 521.667 911.529C505.533 916.729 497 922.729 491.933 932.062C487.133 940.729 486.067 951.529 488.867 963.262C493.933 984.995 490.733 995.662 474.467 1010.33C449.933 1032.33 433.667 1036.2 420.467 1023C406.867 1009.4 406.467 984.195 419.267 937.662C430.467 896.329 451.267 849.662 472.467 817.529C497.133 780.195 523.8 762.729 542.6 771.662ZM1568.47 1138.86C1572.87 1141.26 1571.53 1147.53 1563.53 1163C1551.27 1186.6 1537.4 1201.13 1519.67 1208.86C1512.6 1212.06 1511.4 1212.2 1505.4 1210.86C1498.2 1209.13 1491.8 1203.66 1490.47 1198.2C1486.33 1182.06 1512.2 1158.2 1551.53 1142.06C1563.4 1137.13 1564.6 1136.86 1568.47 1138.86Z" fill="black"/>
<path d="M761.933 419.529C733.4 425.929 716.733 448.195 719.667 475.662C721.4 492.462 730.867 505.395 747 513.129C753.4 516.329 755.933 516.729 767 516.729C780.467 516.729 789.533 513.929 796.067 507.929C800.6 503.529 800.067 495.529 794.867 489.129C790.067 483.262 787.133 482.995 775.8 486.995C767.533 489.795 762.2 489.529 756.6 485.929C749.267 481.262 746.2 469.662 750.2 461.662C755.8 450.995 768.867 445.795 785.667 447.395C795 448.329 859.533 460.862 861.667 462.195C862.467 462.595 863 463.795 863 464.729C863 467.395 818.2 578.062 811.667 591.662C800.467 614.862 787.4 627.929 772.067 631.129C744.6 636.862 724.867 610.462 739.133 587.262C742.067 582.595 749.8 577.529 757.8 574.995C765.667 572.462 768.867 567.929 768.867 559.262C768.867 552.729 768.467 551.529 765 548.595C761.667 545.662 760.333 545.262 753.933 545.929C744.067 546.995 731 553.395 722.333 561.662C698.733 583.929 698.733 623.795 722.333 645.395C735.533 657.395 750.333 662.329 770.2 661.262C790.067 660.062 806.867 651.529 822.867 634.062C834.067 621.795 842.333 604.462 871.667 531.529C884.733 499.262 896.2 472.062 897 470.995C898.467 469.529 901.533 469.529 913.533 470.462C921.667 471.262 928.6 472.062 929 472.462C929.4 472.729 916.067 506.595 899.533 547.662C861.667 641.129 861.4 641.929 863 646.062C864.6 650.462 872.867 652.729 882.2 651.395C890.2 650.329 895.667 645.395 899.267 636.062C909.667 608.595 932.867 553.529 935.933 549.129C937.933 546.195 942.333 541.795 945.667 539.262C952.067 534.595 964.6 530.062 967.133 531.662C969.4 532.995 968.067 537.395 955 570.729C948.333 587.929 941.933 605.795 940.867 610.729C934.467 640.862 944.467 656.062 969.533 654.595C983.133 653.929 994.2 647.929 1007.93 633.929C1018.87 622.862 1018.87 622.729 1019.8 626.462C1023.93 643.795 1037.93 653.529 1060.33 654.595C1080.73 655.529 1096.47 650.462 1115.67 636.862C1133.53 624.195 1160.33 589.395 1160.33 578.862C1160.33 574.729 1154.47 569.529 1149.93 569.529C1145.53 569.529 1143.53 571.529 1134.33 585.529C1126.07 598.062 1108.6 615.395 1098.47 621.395C1078.47 633.262 1058.73 633.929 1053.13 622.995C1050.47 618.062 1050.33 602.995 1052.73 599.662C1054.07 597.795 1057 597.262 1068.07 596.862C1090.33 596.062 1102.47 591.395 1113.8 579.262C1133.93 557.795 1138.6 525.395 1123.8 510.595C1117.13 504.062 1111.4 502.195 1098.33 502.195C1087.67 502.195 1085.4 502.595 1077.67 506.329C1056.33 516.462 1041.13 534.729 1029.13 564.462C1019 589.662 995.133 621.262 980.6 628.729C972.467 632.995 970.333 630.862 972.333 620.462C973.8 612.595 974.733 610.062 988.867 574.595C1006.47 530.462 1007.93 519.262 996.867 508.595C993.133 504.995 989.4 502.729 986.2 502.062C978.2 500.595 967 502.462 958.467 506.729C954.067 508.862 950.333 510.595 950.2 510.462C949.933 510.329 953.8 500.595 958.467 488.995C966.733 468.595 967.4 467.395 975.267 460.062C982.733 452.995 983.267 452.062 982.467 448.062C981.4 442.329 979.8 440.729 973 438.062C967.533 436.062 966.733 436.062 958.067 438.595C936.867 444.995 924.067 443.929 852.333 429.395C794.067 417.529 778.2 415.795 761.933 419.529ZM1101 532.195C1101.93 533.795 1097.13 550.729 1094.2 556.462C1088.47 567.395 1077.8 574.862 1067.67 574.862C1060.07 574.862 1060.07 573.795 1067.13 560.062C1073 548.729 1082.33 537.395 1089 533.262C1093.4 530.595 1099.67 530.062 1101 532.195Z" fill="black"/>
<path d="M440.467 1169.8C433.533 1173.26 427.8 1181.53 425.8 1191C425 1194.73 424.333 1213.13 424.333 1232.86C424.333 1264.86 424.6 1268.73 427 1275.26C429.8 1282.86 435.4 1289 443 1293C450.067 1296.73 469.8 1296.46 477.267 1292.46C488.733 1286.46 495 1274.2 495 1257.93V1249.53H484.467H474.067L473.267 1257.13C473 1261.4 471.933 1266.46 471 1268.46C467.533 1276.06 455.4 1276.73 451.667 1269.53C450.067 1266.33 449.667 1259 449.667 1230.33C449.667 1195.53 449.667 1195 452.733 1191.66C455.933 1188.06 459.133 1187.13 464.467 1188.6C468.6 1189.66 470.867 1193.66 472.067 1202.2L473 1208.86H483H493V1188.86V1168.86L484.6 1168.46C479.667 1168.2 475.4 1168.73 474.333 1169.53C473 1170.6 471.533 1170.46 468.467 1169C462.333 1165.8 447.667 1166.2 440.467 1169.8Z" fill="black"/>
<path d="M546.333 1168.86C539.667 1171.13 530.733 1180.73 528.6 1187.8C526.2 1195.66 526.467 1268.46 528.867 1275.26C531.667 1282.86 537 1289 543.933 1292.33C549.267 1295 552.333 1295.53 563 1295.53C574.467 1295.53 576.333 1295.13 582.6 1291.66C590.6 1287.26 595.533 1280.86 597.667 1272.2C598.6 1268.2 599 1252.86 598.733 1227.53C598.333 1190.6 598.2 1188.6 595.4 1183.26C591.8 1176.46 584.467 1170.46 577.8 1168.33C570.867 1166.33 552.867 1166.6 546.333 1168.86ZM566.733 1188.33C573.4 1190.6 573.8 1193.4 573.4 1233.4L573 1269.8L569.8 1272.33C565.533 1275.8 559.533 1275.53 555.667 1271.53L552.333 1268.33V1231.66C552.333 1211.53 552.733 1194.06 553.133 1192.86C553.933 1191 557.133 1189 562.467 1186.86C562.6 1186.86 564.467 1187.53 566.733 1188.33Z" fill="black"/>
<path d="M648.2 1170.6C639.533 1175.13 634.333 1182.73 632.2 1194.06C631.267 1199 631 1215.13 631.267 1236.06C631.667 1269.66 631.667 1270.33 635.133 1277.66C637.267 1282.06 640.733 1286.73 643.4 1288.73C657.533 1299.53 682.467 1298.46 694.467 1286.33C703.4 1277.53 704.333 1272.33 704.333 1232.06C704.333 1194.06 703.4 1187 697.533 1178.86C691.4 1170.33 682.6 1166.86 667.533 1166.86C656.733 1166.86 654.467 1167.26 648.2 1170.6ZM675.933 1191.13C678.067 1193.53 678.333 1197.26 678.733 1228.86C679.133 1269.53 678.6 1272.73 670.467 1274.33C664.2 1275.4 659.533 1272.46 657.667 1265.93C656.6 1262.6 656.333 1249.53 656.6 1228.2C657 1199.8 657.267 1194.86 659.267 1191.93C662.867 1186.6 671.4 1186.2 675.933 1191.13Z" fill="black"/>
<path d="M1223.67 1168.73C1216.6 1171.8 1211.13 1178.86 1208.2 1188.33C1205.67 1196.6 1205.53 1200.2 1205.93 1234.46C1206.47 1275.66 1206.6 1276.6 1215.67 1286.73C1224.33 1296.2 1239.4 1298.73 1252.2 1292.86C1258.73 1289.8 1259.67 1289.66 1261.67 1291.53C1263 1292.73 1266.33 1293.53 1270.07 1293.53H1276.33V1262.2V1230.86H1260.33H1244.33V1240.86V1250.86H1249.67H1255V1257.13C1255 1260.73 1253.93 1265.66 1252.6 1268.2C1248.2 1277 1235.8 1276.6 1232.33 1267.4C1231.53 1265.53 1231 1248.86 1231 1230.46C1231 1199.26 1231.27 1196.6 1233.67 1192.46C1236.2 1188.33 1238.33 1187.53 1245 1188.2C1249.67 1188.6 1252.6 1192.73 1253.4 1200.33L1254.33 1207.53L1264.07 1207.93L1273.67 1208.33V1188.2V1168.2H1265C1258.6 1168.2 1256.07 1168.73 1255.53 1170.06C1254.87 1171.66 1254.07 1171.53 1250.6 1169.4C1245.53 1166.33 1229.93 1165.93 1223.67 1168.73Z" fill="black"/>
<path d="M736.067 1169C735.4 1169.53 735 1174.06 735 1179.13V1188.2H739.667H744.333V1230.86V1273.53H739.667H735V1283.53V1293.53L757.4 1293.26L779.667 1292.86V1283.53V1274.2L774.733 1273.8L769.667 1273.4V1259V1244.6L783.533 1243.93C800.867 1243.13 807.667 1239.93 812.6 1229.93C815.4 1224.2 815.667 1221.66 815.667 1206.2C815.667 1190.86 815.267 1188.2 812.733 1183.26C809.533 1177.26 805 1173.66 797.667 1170.86C792.467 1168.86 737.667 1167.26 736.067 1169ZM786.067 1189.66C790.6 1192.06 791 1193.4 791 1206.33C791 1221.93 790.067 1223.26 778.467 1223.93L769.667 1224.46V1206.33V1188.2H776.467C780.2 1188.2 784.467 1188.86 786.067 1189.66Z" fill="black"/>
<path d="M847 1178.2V1188.2H851.667H856.333V1230.86V1273.53H851.667H847V1283.53V1293.53H887.667H928.333V1272.86V1252.2H917.667H907V1262.86V1273.53H894.333H881.667V1256.2V1239L894.067 1238.6L906.333 1238.2V1227.53V1216.86L894.067 1216.46L881.667 1216.06V1202.2V1188.2H894.333H907V1197.53V1207L917.4 1206.6L927.667 1206.2V1187.53V1168.86L887.4 1168.46L847 1168.2V1178.2Z" fill="black"/>
<path d="M961.4 1169C960.733 1169.53 960.333 1174.06 960.333 1179V1188.06L965.4 1188.46L970.333 1188.86L970.733 1231.13L971 1273.4L966.067 1273.8L961 1274.2L960.6 1283.93L960.2 1293.53L982.6 1293.26L1005 1292.86V1283.53V1274.2L999.933 1273.8L994.867 1273.4L995.267 1255.8L995.667 1238.2L1004.6 1238.33C1009.67 1238.33 1014.33 1239.13 1015.53 1240.06C1017.27 1241.53 1017.67 1246.33 1017.93 1267.4L1018.33 1292.86L1035.4 1293.26L1052.33 1293.66V1283.53V1273.53H1047.67H1043L1042.87 1258.46C1042.87 1241.13 1041.27 1235.4 1035.53 1231.53L1031.27 1228.6L1035.27 1225.4C1040.33 1221.26 1042.87 1213.66 1042.87 1202.86C1043 1185.4 1038.87 1176.46 1028.47 1171.8C1023 1169.26 1019.27 1168.86 992.333 1168.46C975.8 1168.2 961.933 1168.46 961.4 1169ZM1014.73 1190.33C1017.4 1192.06 1017.67 1193.53 1017.67 1202.86C1017.67 1210.46 1017.13 1213.93 1015.67 1215.4C1013.13 1217.8 1006.6 1219.26 1000.2 1218.6L995.667 1218.2L995.267 1205C995.133 1197.66 995.267 1190.86 995.533 1189.93C996.6 1187.4 1010.87 1187.66 1014.73 1190.33Z" fill="black"/>
<path d="M1102.6 1169C1102.07 1169.53 1101.67 1174.06 1101.67 1179.13V1188.2H1106.33C1108.87 1188.2 1111 1188.6 1111 1189.13C1111 1189.8 1105.93 1208.73 1099.93 1231.53L1088.87 1272.86L1084.87 1273.53C1081 1274.2 1081 1274.33 1081 1283.53V1292.86L1100.73 1293.26L1120.33 1293.66V1283.53V1273.53H1115.8H1111.27L1113.27 1265.53L1115.27 1257.53H1127.8H1140.2L1141.53 1262.46C1144.33 1274.06 1144.47 1273.4 1139.13 1273.8L1134.33 1274.2V1283.53V1292.86L1155.4 1293.26L1176.33 1293.66V1283.53V1273.53H1172.73H1169L1158.6 1233.8C1152.87 1212.06 1147.93 1192.86 1147.53 1191.13C1146.73 1188.46 1147.13 1188.2 1151.53 1188.2H1156.47L1156.07 1178.46L1155.67 1168.86L1129.53 1168.46C1115.27 1168.33 1103.13 1168.6 1102.6 1169ZM1132.2 1220.86C1133.8 1228.2 1135.4 1235.53 1135.93 1237.13C1136.6 1240.06 1136.2 1240.2 1128.47 1240.2C1122.87 1240.2 1120.33 1239.66 1120.33 1238.46C1120.2 1234.46 1127.67 1204.46 1128.47 1205.93C1129 1206.86 1130.6 1213.53 1132.2 1220.86Z" fill="black"/>
<path d="M1307.53 1170.06C1307.13 1171 1307 1175.4 1307.27 1179.66L1307.67 1187.53L1312.33 1188.2L1317 1188.86L1317.4 1231.13L1317.67 1273.4L1312.73 1273.8L1307.67 1274.2V1283.53V1292.86H1348.33H1389V1272.86V1252.86L1378.73 1252.46L1368.33 1252.06V1262.86V1273.53H1355.67H1343V1256.2V1239L1354.73 1238.6L1366.33 1238.2V1227.53V1216.86L1354.73 1216.46L1343 1216.06V1202.2V1188.2H1355H1366.87L1367.27 1197.13L1367.67 1206.2L1378.07 1206.6L1388.33 1207V1187.53V1168.2H1348.33C1315.67 1168.2 1308.07 1168.6 1307.53 1170.06Z" fill="black"/>
</svg>
