<svg width="172" height="132" viewBox="0 0 172 132" fill="none" xmlns="http://www.w3.org/2000/svg">
<path d="M165.44 67.68H69.47V126.76H165.44V67.68Z" fill="#F89521"/>
<path d="M45.05 116.35C45.05 116.35 64.63 96.52 64.89 86.91V116.35H45.05Z" stroke="white" stroke-width="10" stroke-miterlimit="10"/>
<path d="M45.05 116.35C45.05 116.35 64.63 96.52 64.89 86.91V116.35H45.05Z" fill="#A5BB91"/>
<path d="M35.54 7.56999C20.33 7.56999 8 31.52 8 61.06C8 90.6 20.33 114.56 35.54 114.56C50.75 114.56 63.09 90.61 63.09 61.06C63.09 31.51 50.76 7.56999 35.54 7.56999ZM35.54 81.21C28.82 81.21 23.37 72.19 23.37 61.06C23.37 49.93 28.82 40.91 35.54 40.91C42.26 40.91 47.72 49.93 47.72 61.06C47.72 72.19 42.27 81.21 35.54 81.21Z" stroke="white" stroke-width="15" stroke-miterlimit="10"/>
<path d="M35.54 7.56999C20.33 7.56999 8 31.52 8 61.06C8 90.6 20.33 114.56 35.54 114.56C50.75 114.56 63.09 90.61 63.09 61.06C63.09 31.51 50.76 7.56999 35.54 7.56999ZM35.54 81.21C28.82 81.21 23.37 72.19 23.37 61.06C23.37 49.93 28.82 40.91 35.54 40.91C42.26 40.91 47.72 49.93 47.72 61.06C47.72 72.19 42.27 81.21 35.54 81.21Z" fill="#A5BB91"/>
<path d="M137.19 6H48.54C69.43 17.7 69.12 66.37 69.47 63.9V64.77H81.1C82.37 64.77 83.39 65.55 83.39 66.51V66.99C83.39 67.95 82.36 68.74 81.1 68.74H69.47V126.76H165.44V68.74H153.62C152.35 68.74 151.33 67.95 151.33 66.99V66.51C151.33 65.55 152.36 64.77 153.62 64.77H165.44V63.9C170.89 8.07001 137.2 6 137.2 6H137.19ZM111.72 66.99C111.72 67.95 110.69 68.74 109.43 68.74H94.49C93.22 68.74 92.2 67.95 92.2 66.99V66.51C92.2 65.55 93.23 64.77 94.49 64.77H109.43C110.7 64.77 111.72 65.55 111.72 66.51V66.99ZM142.66 66.99C142.66 67.95 141.62 68.74 140.36 68.74H125.43C124.16 68.74 123.13 67.95 123.13 66.99V66.51C123.13 65.55 124.17 64.77 125.43 64.77H140.36C141.63 64.77 142.66 65.55 142.66 66.51V66.99Z" stroke="white" stroke-width="10" stroke-miterlimit="10"/>
<path d="M137.19 6H48.54C69.43 17.7 69.12 66.37 69.47 63.9V64.77H81.1C82.37 64.77 83.39 65.55 83.39 66.51V66.99C83.39 67.95 82.36 68.74 81.1 68.74H69.47V126.76H165.44V68.74H153.62C152.35 68.74 151.33 67.95 151.33 66.99V66.51C151.33 65.55 152.36 64.77 153.62 64.77H165.44V63.9C170.89 8.07001 137.2 6 137.2 6H137.19ZM111.72 66.99C111.72 67.95 110.69 68.74 109.43 68.74H94.49C93.22 68.74 92.2 67.95 92.2 66.99V66.51C92.2 65.55 93.23 64.77 94.49 64.77H109.43C110.7 64.77 111.72 65.55 111.72 66.51V66.99ZM142.66 66.99C142.66 67.95 141.62 68.74 140.36 68.74H125.43C124.16 68.74 123.13 67.95 123.13 66.99V66.51C123.13 65.55 124.17 64.77 125.43 64.77H140.36C141.63 64.77 142.66 65.55 142.66 66.51V66.99Z" fill="#A5BB91"/>
<path d="M35.54 81.22C42.2724 81.22 47.73 72.1985 47.73 61.07C47.73 49.9415 42.2724 40.92 35.54 40.92C28.8076 40.92 23.35 49.9415 23.35 61.07C23.35 72.1985 28.8076 81.22 35.54 81.22Z" fill="white"/>
<path d="M95.82 80.24H97.62V94.02C97.67 96.12 97.2 97.9 96.2 99.37C95.17 100.9 93.19 101.69 90.25 101.73C87.96 101.69 86.29 101.18 85.27 100.21C84.73 99.76 84.32 99.28 84.05 98.76C83.78 98.27 83.63 97.8 83.59 97.35H85.53C85.84 98.47 86.43 99.22 87.3 99.59C88.17 99.96 89.16 100.15 90.25 100.15C91.51 100.12 92.51 99.9 93.26 99.49C94 99.11 94.57 98.57 94.95 97.88C95.33 97.19 95.59 96.44 95.71 95.61C95.82 94.77 95.85 93.92 95.81 93.06C95.2 93.98 94.39 94.67 93.41 95.13C92.41 95.64 91.34 95.9 90.19 95.9C87.8 95.86 86.03 95.04 84.89 93.43C83.74 91.88 83.17 90.01 83.17 87.84C83.15 85.52 83.7 83.62 84.83 82.12C85.97 80.62 87.78 79.85 90.27 79.84C91.32 79.84 92.36 80.09 93.4 80.6C94.41 81.13 95.19 81.9 95.73 82.93H95.8V80.24H95.82ZM95.82 87.94C95.82 86.05 95.37 84.5 94.47 83.28C93.56 82.06 92.23 81.44 90.49 81.42C88.93 81.42 87.67 81.93 86.69 82.96C85.7 84 85.17 85.48 85.11 87.41C85.05 89.38 85.46 91 86.36 92.27C87.23 93.62 88.61 94.31 90.49 94.33C92.17 94.31 93.48 93.67 94.41 92.42C95.35 91.18 95.82 89.69 95.82 87.95V87.94Z" fill="#04586E"/>
<path d="M109.05 95.9C106.99 95.88 105.28 95.19 103.92 93.83C102.51 92.5 101.79 90.51 101.77 87.87C101.77 85.57 102.38 83.66 103.59 82.15C104.8 80.65 106.62 79.88 109.04 79.84C111.49 79.88 113.32 80.65 114.54 82.15C115.74 83.66 116.33 85.57 116.33 87.87C116.31 90.32 115.65 92.25 114.36 93.66C113.07 95.14 111.29 95.88 109.04 95.9H109.05ZM114.42 87.87C114.44 86.02 114.03 84.48 113.2 83.27C112.37 82.05 110.99 81.43 109.05 81.41C107.15 81.45 105.78 82.11 104.95 83.38C104.12 84.66 103.7 86.15 103.7 87.87C103.7 89.79 104.17 91.33 105.1 92.49C105.99 93.69 107.31 94.3 109.05 94.32C110.96 94.3 112.34 93.63 113.2 92.32C114.01 91.04 114.42 89.56 114.42 87.87Z" fill="#04586E"/>
<path d="M125.75 95.54C125.53 95.58 125.25 95.63 124.91 95.71C124.54 95.81 124.13 95.88 123.66 95.9C122.78 95.9 122.11 95.67 121.65 95.22C121.14 94.74 120.89 93.95 120.89 92.86V81.7H118.67V80.24H120.89V76H122.69V80.24H125.63V81.7H122.69V92.17C122.67 92.89 122.75 93.43 122.94 93.78C123.1 94.14 123.54 94.31 124.27 94.31C124.77 94.31 125.27 94.24 125.75 94.11V95.54Z" fill="#04586E"/>
<path d="M134.46 95.54C134.24 95.58 133.96 95.63 133.62 95.71C133.25 95.81 132.84 95.88 132.37 95.9C131.49 95.9 130.82 95.67 130.36 95.22C129.85 94.74 129.6 93.95 129.6 92.86V81.7H127.38V80.24H129.6V76H131.4V80.24H134.34V81.7H131.4V92.17C131.38 92.89 131.46 93.43 131.65 93.78C131.81 94.14 132.25 94.31 132.98 94.31C133.48 94.31 133.98 94.24 134.46 94.11V95.54Z" fill="#04586E"/>
<path d="M144.89 86.6C145.26 86.55 145.67 86.49 146.14 86.41C146.59 86.31 146.97 86.21 147.3 86.09C147.6 85.93 147.79 85.69 147.88 85.38C147.94 85.06 147.97 84.77 147.97 84.49C147.97 83.57 147.67 82.83 147.08 82.26C146.48 81.7 145.46 81.42 144.04 81.4C142.79 81.38 141.76 81.62 140.95 82.1C140.16 82.62 139.66 83.53 139.45 84.85H137.59C137.78 83.06 138.47 81.76 139.66 80.96C140.85 80.2 142.31 79.83 144.06 79.83C145.69 79.83 147.04 80.17 148.12 80.85C149.19 81.58 149.73 82.81 149.76 84.56V92.87C149.73 93.53 149.86 93.95 150.15 94.13C150.42 94.32 150.93 94.29 151.68 94.04V95.42C151.55 95.46 151.36 95.51 151.1 95.56C150.81 95.66 150.53 95.7 150.24 95.7C149.95 95.7 149.69 95.67 149.43 95.62C148.85 95.51 148.47 95.23 148.28 94.81C148.1 94.38 148 93.9 147.98 93.38C146.4 95.04 144.44 95.88 142.11 95.9C140.69 95.9 139.48 95.53 138.48 94.78C137.42 94.07 136.88 92.99 136.86 91.52C136.86 88.94 138.69 87.41 142.35 86.92L144.88 86.6H144.89ZM147.97 87.48C147.2 87.76 146.41 87.95 145.62 88.07C144.83 88.2 144.03 88.29 143.24 88.33C140.32 88.49 138.84 89.58 138.8 91.58C138.82 92.48 139.18 93.16 139.87 93.61C140.54 94.08 141.33 94.32 142.22 94.32C143.74 94.32 145.06 93.95 146.2 93.23C147.34 92.53 147.93 91.41 147.97 89.88V87.49V87.48Z" fill="#04586E"/>
<path d="M122.5 104.68C122.15 103.27 121.3 102.29 119.95 101.73C119.19 101.42 118.35 101.27 117.43 101.27C115.66 101.27 114.21 101.9 113.07 103.15C111.93 104.4 111.36 106.29 111.36 108.8C111.36 111.31 111.98 113.13 113.21 114.18C114.44 115.23 115.84 115.76 117.42 115.76C119 115.76 120.22 115.34 121.21 114.51C122.2 113.68 122.8 112.59 123.03 111.25H117.95V107.81H127.11V118.88H124.07L123.61 116.3C122.73 117.28 121.93 117.96 121.22 118.36C120.01 119.06 118.52 119.41 116.75 119.41C113.84 119.41 111.45 118.46 109.59 116.57C107.65 114.67 106.68 112.07 106.68 108.76C106.68 105.45 107.66 102.74 109.62 100.73C111.58 98.72 114.17 97.71 117.39 97.71C120.18 97.71 122.43 98.38 124.12 99.71C125.81 101.04 126.79 102.7 127.04 104.69H122.52L122.5 104.68Z" fill="#04586E"/>
<path d="M148.4 117.04C146.74 118.65 144.34 119.45 141.2 119.45C138.06 119.45 135.66 118.65 134 117.04C131.77 115.07 130.66 112.23 130.66 108.53C130.66 104.83 131.77 101.91 134 100.02C135.66 98.42 138.06 97.61 141.2 97.61C144.34 97.61 146.74 98.41 148.4 100.02C150.62 101.92 151.73 104.75 151.73 108.53C151.73 112.31 150.62 115.07 148.4 117.04ZM145.53 113.9C146.6 112.64 147.13 110.85 147.13 108.52C147.13 106.19 146.6 104.42 145.53 103.15C144.46 101.89 143.02 101.25 141.2 101.25C139.38 101.25 137.93 101.88 136.85 103.14C135.77 104.4 135.23 106.19 135.23 108.52C135.23 110.85 135.77 112.64 136.85 113.9C137.93 115.16 139.39 115.79 141.2 115.79C143.01 115.79 144.46 115.16 145.53 113.9Z" fill="#04586E"/>
</svg>
